<mxfile host="Electron" agent="Mozilla/5.0 (Windows NT 10.0; Win64; x64) AppleWebKit/537.36 (KHTML, like Gecko) draw.io/24.7.8 Chrome/128.0.6613.36 Electron/32.0.1 Safari/537.36" version="24.7.8">
  <diagram id="C5RBs43oDa-KdzZeNtuy" name="Page-1">
    <mxGraphModel dx="1674" dy="1236" grid="1" gridSize="10" guides="1" tooltips="1" connect="1" arrows="1" fold="1" page="0" pageScale="1" pageWidth="827" pageHeight="1169" math="0" shadow="0">
      <root>
        <mxCell id="WIyWlLk6GJQsqaUBKTNV-0" />
        <mxCell id="WIyWlLk6GJQsqaUBKTNV-1" parent="WIyWlLk6GJQsqaUBKTNV-0" />
        <mxCell id="DCmHHIJIUm0J4RA_5t2B-1" value="Profile" style="swimlane;fontStyle=1;align=center;verticalAlign=top;childLayout=stackLayout;horizontal=1;startSize=26;horizontalStack=0;resizeParent=1;resizeParentMax=0;resizeLast=0;collapsible=1;marginBottom=0;whiteSpace=wrap;html=1;" parent="WIyWlLk6GJQsqaUBKTNV-1" vertex="1">
          <mxGeometry x="40" y="40" width="150" height="130" as="geometry" />
        </mxCell>
        <mxCell id="DCmHHIJIUm0J4RA_5t2B-2" value="&lt;div&gt;+Name : string&lt;br&gt;+Email : string&lt;br&gt;+Password: string&lt;br&gt;+Address : string&lt;br&gt;+profilePhoto : string&lt;/div&gt;" style="text;strokeColor=none;fillColor=none;align=left;verticalAlign=top;spacingLeft=4;spacingRight=4;overflow=hidden;rotatable=0;points=[[0,0.5],[1,0.5]];portConstraint=eastwest;whiteSpace=wrap;html=1;" parent="DCmHHIJIUm0J4RA_5t2B-1" vertex="1">
          <mxGeometry y="26" width="150" height="84" as="geometry" />
        </mxCell>
        <mxCell id="DCmHHIJIUm0J4RA_5t2B-3" value="" style="line;strokeWidth=1;fillColor=none;align=left;verticalAlign=middle;spacingTop=-1;spacingLeft=3;spacingRight=3;rotatable=0;labelPosition=right;points=[];portConstraint=eastwest;strokeColor=inherit;" parent="DCmHHIJIUm0J4RA_5t2B-1" vertex="1">
          <mxGeometry y="110" width="150" height="20" as="geometry" />
        </mxCell>
        <mxCell id="DCmHHIJIUm0J4RA_5t2B-8" value="User" style="swimlane;fontStyle=1;align=center;verticalAlign=top;childLayout=stackLayout;horizontal=1;startSize=26;horizontalStack=0;resizeParent=1;resizeParentMax=0;resizeLast=0;collapsible=1;marginBottom=0;whiteSpace=wrap;html=1;" parent="WIyWlLk6GJQsqaUBKTNV-1" vertex="1">
          <mxGeometry x="280" y="80" width="210" height="290" as="geometry" />
        </mxCell>
        <mxCell id="DCmHHIJIUm0J4RA_5t2B-9" value="profile: Profile&lt;br&gt;isLoggedIn : bool&lt;br&gt;Posts : List&amp;lt;Post&amp;gt;&lt;br&gt;NewsFeed : List&amp;lt;Post&amp;gt;&lt;br&gt;friendList : List&amp;lt;Users&amp;gt;&lt;br&gt;Imediator" style="text;strokeColor=none;fillColor=none;align=left;verticalAlign=top;spacingLeft=4;spacingRight=4;overflow=hidden;rotatable=0;points=[[0,0.5],[1,0.5]];portConstraint=eastwest;whiteSpace=wrap;html=1;" parent="DCmHHIJIUm0J4RA_5t2B-8" vertex="1">
          <mxGeometry y="26" width="210" height="104" as="geometry" />
        </mxCell>
        <mxCell id="DCmHHIJIUm0J4RA_5t2B-10" value="" style="line;strokeWidth=1;fillColor=none;align=left;verticalAlign=middle;spacingTop=-1;spacingLeft=3;spacingRight=3;rotatable=0;labelPosition=right;points=[];portConstraint=eastwest;strokeColor=inherit;" parent="DCmHHIJIUm0J4RA_5t2B-8" vertex="1">
          <mxGeometry y="130" width="210" height="8" as="geometry" />
        </mxCell>
        <mxCell id="DCmHHIJIUm0J4RA_5t2B-11" value="Login(email, password) : bool&lt;br&gt;Logout(email) : bool&lt;br&gt;CreatePost() : Post&lt;br&gt;LikePost(Post) : bool&lt;br&gt;CommentOnPost(Post) : Comment&lt;br&gt;SendRequest(User) : Request&lt;br&gt;AcceptRequest(Request) : bool&lt;br&gt;SendMessage(User) : Message&lt;br&gt;CheckoutProfile(User) : Profile" style="text;strokeColor=none;fillColor=none;align=left;verticalAlign=top;spacingLeft=4;spacingRight=4;overflow=hidden;rotatable=0;points=[[0,0.5],[1,0.5]];portConstraint=eastwest;whiteSpace=wrap;html=1;" parent="DCmHHIJIUm0J4RA_5t2B-8" vertex="1">
          <mxGeometry y="138" width="210" height="152" as="geometry" />
        </mxCell>
        <mxCell id="DCmHHIJIUm0J4RA_5t2B-12" value="" style="endArrow=circlePlus;startArrow=none;endFill=0;startFill=0;endSize=8;html=1;labelBackgroundColor=none;rounded=0;entryX=1;entryY=0.5;entryDx=0;entryDy=0;" parent="WIyWlLk6GJQsqaUBKTNV-1" target="DCmHHIJIUm0J4RA_5t2B-2" edge="1">
          <mxGeometry width="160" relative="1" as="geometry">
            <mxPoint x="276" y="108" as="sourcePoint" />
            <mxPoint x="600" y="330" as="targetPoint" />
          </mxGeometry>
        </mxCell>
        <mxCell id="DCmHHIJIUm0J4RA_5t2B-13" value="Comment" style="swimlane;fontStyle=1;align=center;verticalAlign=top;childLayout=stackLayout;horizontal=1;startSize=26;horizontalStack=0;resizeParent=1;resizeParentMax=0;resizeLast=0;collapsible=1;marginBottom=0;whiteSpace=wrap;html=1;" parent="WIyWlLk6GJQsqaUBKTNV-1" vertex="1">
          <mxGeometry x="580" y="-230" width="160" height="154" as="geometry" />
        </mxCell>
        <mxCell id="DCmHHIJIUm0J4RA_5t2B-14" value="Author : User&lt;br&gt;Likes : int&lt;br&gt;Post : Post" style="text;strokeColor=none;fillColor=none;align=left;verticalAlign=top;spacingLeft=4;spacingRight=4;overflow=hidden;rotatable=0;points=[[0,0.5],[1,0.5]];portConstraint=eastwest;whiteSpace=wrap;html=1;" parent="DCmHHIJIUm0J4RA_5t2B-13" vertex="1">
          <mxGeometry y="26" width="160" height="94" as="geometry" />
        </mxCell>
        <mxCell id="DCmHHIJIUm0J4RA_5t2B-15" value="" style="line;strokeWidth=1;fillColor=none;align=left;verticalAlign=middle;spacingTop=-1;spacingLeft=3;spacingRight=3;rotatable=0;labelPosition=right;points=[];portConstraint=eastwest;strokeColor=inherit;" parent="DCmHHIJIUm0J4RA_5t2B-13" vertex="1">
          <mxGeometry y="120" width="160" height="8" as="geometry" />
        </mxCell>
        <mxCell id="DCmHHIJIUm0J4RA_5t2B-16" value="+ method(type): type" style="text;strokeColor=none;fillColor=none;align=left;verticalAlign=top;spacingLeft=4;spacingRight=4;overflow=hidden;rotatable=0;points=[[0,0.5],[1,0.5]];portConstraint=eastwest;whiteSpace=wrap;html=1;" parent="DCmHHIJIUm0J4RA_5t2B-13" vertex="1">
          <mxGeometry y="128" width="160" height="26" as="geometry" />
        </mxCell>
        <mxCell id="DCmHHIJIUm0J4RA_5t2B-17" value="Request" style="swimlane;fontStyle=1;align=center;verticalAlign=top;childLayout=stackLayout;horizontal=1;startSize=26;horizontalStack=0;resizeParent=1;resizeParentMax=0;resizeLast=0;collapsible=1;marginBottom=0;whiteSpace=wrap;html=1;" parent="WIyWlLk6GJQsqaUBKTNV-1" vertex="1">
          <mxGeometry x="800" y="-230" width="160" height="154" as="geometry" />
        </mxCell>
        <mxCell id="DCmHHIJIUm0J4RA_5t2B-18" value="From: User&lt;br&gt;To : User&lt;br&gt;Time : DTO&lt;div&gt;&lt;br/&gt;&lt;/div&gt;" style="text;strokeColor=none;fillColor=none;align=left;verticalAlign=top;spacingLeft=4;spacingRight=4;overflow=hidden;rotatable=0;points=[[0,0.5],[1,0.5]];portConstraint=eastwest;whiteSpace=wrap;html=1;" parent="DCmHHIJIUm0J4RA_5t2B-17" vertex="1">
          <mxGeometry y="26" width="160" height="94" as="geometry" />
        </mxCell>
        <mxCell id="DCmHHIJIUm0J4RA_5t2B-19" value="" style="line;strokeWidth=1;fillColor=none;align=left;verticalAlign=middle;spacingTop=-1;spacingLeft=3;spacingRight=3;rotatable=0;labelPosition=right;points=[];portConstraint=eastwest;strokeColor=inherit;" parent="DCmHHIJIUm0J4RA_5t2B-17" vertex="1">
          <mxGeometry y="120" width="160" height="8" as="geometry" />
        </mxCell>
        <mxCell id="DCmHHIJIUm0J4RA_5t2B-20" value="+ method(type): type" style="text;strokeColor=none;fillColor=none;align=left;verticalAlign=top;spacingLeft=4;spacingRight=4;overflow=hidden;rotatable=0;points=[[0,0.5],[1,0.5]];portConstraint=eastwest;whiteSpace=wrap;html=1;" parent="DCmHHIJIUm0J4RA_5t2B-17" vertex="1">
          <mxGeometry y="128" width="160" height="26" as="geometry" />
        </mxCell>
        <mxCell id="DCmHHIJIUm0J4RA_5t2B-21" value="Post" style="swimlane;fontStyle=1;align=center;verticalAlign=top;childLayout=stackLayout;horizontal=1;startSize=26;horizontalStack=0;resizeParent=1;resizeParentMax=0;resizeLast=0;collapsible=1;marginBottom=0;whiteSpace=wrap;html=1;" parent="WIyWlLk6GJQsqaUBKTNV-1" vertex="1">
          <mxGeometry x="310" y="-230" width="190" height="174" as="geometry" />
        </mxCell>
        <mxCell id="DCmHHIJIUm0J4RA_5t2B-22" value="Author : User&lt;div&gt;Likes : int&lt;br&gt;Views : int&lt;br&gt;comments : List&amp;lt;comments&amp;gt;&lt;/div&gt;" style="text;strokeColor=none;fillColor=none;align=left;verticalAlign=top;spacingLeft=4;spacingRight=4;overflow=hidden;rotatable=0;points=[[0,0.5],[1,0.5]];portConstraint=eastwest;whiteSpace=wrap;html=1;" parent="DCmHHIJIUm0J4RA_5t2B-21" vertex="1">
          <mxGeometry y="26" width="190" height="114" as="geometry" />
        </mxCell>
        <mxCell id="DCmHHIJIUm0J4RA_5t2B-23" value="" style="line;strokeWidth=1;fillColor=none;align=left;verticalAlign=middle;spacingTop=-1;spacingLeft=3;spacingRight=3;rotatable=0;labelPosition=right;points=[];portConstraint=eastwest;strokeColor=inherit;" parent="DCmHHIJIUm0J4RA_5t2B-21" vertex="1">
          <mxGeometry y="140" width="190" height="8" as="geometry" />
        </mxCell>
        <mxCell id="DCmHHIJIUm0J4RA_5t2B-24" value="+ method(type): type" style="text;strokeColor=none;fillColor=none;align=left;verticalAlign=top;spacingLeft=4;spacingRight=4;overflow=hidden;rotatable=0;points=[[0,0.5],[1,0.5]];portConstraint=eastwest;whiteSpace=wrap;html=1;" parent="DCmHHIJIUm0J4RA_5t2B-21" vertex="1">
          <mxGeometry y="148" width="190" height="26" as="geometry" />
        </mxCell>
        <mxCell id="DCmHHIJIUm0J4RA_5t2B-25" value="Message" style="swimlane;fontStyle=1;align=center;verticalAlign=top;childLayout=stackLayout;horizontal=1;startSize=26;horizontalStack=0;resizeParent=1;resizeParentMax=0;resizeLast=0;collapsible=1;marginBottom=0;whiteSpace=wrap;html=1;" parent="WIyWlLk6GJQsqaUBKTNV-1" vertex="1">
          <mxGeometry x="1020" y="-230" width="160" height="154" as="geometry" />
        </mxCell>
        <mxCell id="DCmHHIJIUm0J4RA_5t2B-26" value="From: User&lt;br&gt;To : User&lt;br&gt;Time: DTO&lt;br&gt;isRead : bool&lt;br&gt;isRecieved : bool" style="text;strokeColor=none;fillColor=none;align=left;verticalAlign=top;spacingLeft=4;spacingRight=4;overflow=hidden;rotatable=0;points=[[0,0.5],[1,0.5]];portConstraint=eastwest;whiteSpace=wrap;html=1;" parent="DCmHHIJIUm0J4RA_5t2B-25" vertex="1">
          <mxGeometry y="26" width="160" height="94" as="geometry" />
        </mxCell>
        <mxCell id="DCmHHIJIUm0J4RA_5t2B-27" value="" style="line;strokeWidth=1;fillColor=none;align=left;verticalAlign=middle;spacingTop=-1;spacingLeft=3;spacingRight=3;rotatable=0;labelPosition=right;points=[];portConstraint=eastwest;strokeColor=inherit;" parent="DCmHHIJIUm0J4RA_5t2B-25" vertex="1">
          <mxGeometry y="120" width="160" height="8" as="geometry" />
        </mxCell>
        <mxCell id="DCmHHIJIUm0J4RA_5t2B-28" value="+ method(type): type" style="text;strokeColor=none;fillColor=none;align=left;verticalAlign=top;spacingLeft=4;spacingRight=4;overflow=hidden;rotatable=0;points=[[0,0.5],[1,0.5]];portConstraint=eastwest;whiteSpace=wrap;html=1;" parent="DCmHHIJIUm0J4RA_5t2B-25" vertex="1">
          <mxGeometry y="128" width="160" height="26" as="geometry" />
        </mxCell>
        <mxCell id="DCmHHIJIUm0J4RA_5t2B-30" value="" style="endArrow=circlePlus;startArrow=none;endFill=0;startFill=0;endSize=8;html=1;labelBackgroundColor=none;rounded=0;exitX=0.368;exitY=1.231;exitDx=0;exitDy=0;exitPerimeter=0;" parent="WIyWlLk6GJQsqaUBKTNV-1" source="DCmHHIJIUm0J4RA_5t2B-24" edge="1">
          <mxGeometry width="160" relative="1" as="geometry">
            <mxPoint x="440" y="90" as="sourcePoint" />
            <mxPoint x="380" y="70" as="targetPoint" />
          </mxGeometry>
        </mxCell>
        <mxCell id="DCmHHIJIUm0J4RA_5t2B-31" value="" style="endArrow=circlePlus;startArrow=none;endFill=0;startFill=0;endSize=8;html=1;labelBackgroundColor=none;rounded=0;exitX=0.438;exitY=1.077;exitDx=0;exitDy=0;exitPerimeter=0;" parent="WIyWlLk6GJQsqaUBKTNV-1" source="DCmHHIJIUm0J4RA_5t2B-16" edge="1">
          <mxGeometry width="160" relative="1" as="geometry">
            <mxPoint x="650" y="-50" as="sourcePoint" />
            <mxPoint x="440" y="80" as="targetPoint" />
            <Array as="points">
              <mxPoint x="650" y="20" />
              <mxPoint x="440" y="20" />
            </Array>
          </mxGeometry>
        </mxCell>
        <mxCell id="DCmHHIJIUm0J4RA_5t2B-32" value="" style="endArrow=circlePlus;startArrow=none;endFill=0;startFill=0;endSize=8;html=1;labelBackgroundColor=none;rounded=0;exitX=0.5;exitY=1.115;exitDx=0;exitDy=0;exitPerimeter=0;" parent="WIyWlLk6GJQsqaUBKTNV-1" source="DCmHHIJIUm0J4RA_5t2B-20" edge="1">
          <mxGeometry width="160" relative="1" as="geometry">
            <mxPoint x="670" y="-70" as="sourcePoint" />
            <mxPoint x="460" y="84" as="targetPoint" />
            <Array as="points">
              <mxPoint x="880" y="40" />
              <mxPoint x="460" y="40" />
            </Array>
          </mxGeometry>
        </mxCell>
        <mxCell id="DCmHHIJIUm0J4RA_5t2B-33" value="" style="endArrow=circlePlus;startArrow=none;endFill=0;startFill=0;endSize=8;html=1;labelBackgroundColor=none;rounded=0;exitX=0.5;exitY=1.115;exitDx=0;exitDy=0;exitPerimeter=0;entryX=1.005;entryY=0.163;entryDx=0;entryDy=0;entryPerimeter=0;" parent="WIyWlLk6GJQsqaUBKTNV-1" target="DCmHHIJIUm0J4RA_5t2B-9" edge="1">
          <mxGeometry width="160" relative="1" as="geometry">
            <mxPoint x="1101.05" y="-76" as="sourcePoint" />
            <mxPoint x="490.00000000000006" y="117.02399999999989" as="targetPoint" />
            <Array as="points">
              <mxPoint x="1101.05" y="120" />
              <mxPoint x="681.05" y="120" />
              <mxPoint x="651.05" y="120" />
            </Array>
          </mxGeometry>
        </mxCell>
        <mxCell id="PWuJW1ykGvNtq9JV6YGY-3" value="&amp;lt;&amp;lt;Interface&amp;gt;&amp;gt;&lt;br&gt;Imediator" style="html=1;whiteSpace=wrap;" vertex="1" parent="WIyWlLk6GJQsqaUBKTNV-1">
          <mxGeometry x="810" y="160" width="130" height="80" as="geometry" />
        </mxCell>
        <mxCell id="PWuJW1ykGvNtq9JV6YGY-10" value="" style="edgeStyle=orthogonalEdgeStyle;rounded=0;orthogonalLoop=1;jettySize=auto;html=1;" edge="1" parent="WIyWlLk6GJQsqaUBKTNV-1" source="PWuJW1ykGvNtq9JV6YGY-9" target="PWuJW1ykGvNtq9JV6YGY-3">
          <mxGeometry relative="1" as="geometry">
            <Array as="points">
              <mxPoint x="875" y="300" />
              <mxPoint x="875" y="300" />
            </Array>
          </mxGeometry>
        </mxCell>
        <mxCell id="PWuJW1ykGvNtq9JV6YGY-9" value="&lt;p style=&quot;margin:0px;margin-top:4px;text-align:center;&quot;&gt;&lt;b&gt;System&lt;/b&gt;&lt;br&gt;&amp;lt;&amp;lt;Singleton&amp;gt;&amp;gt;&lt;br&gt;&lt;b&gt;+GetSystemInstance()&lt;/b&gt;&lt;br&gt;&lt;b&gt;+NotifyAboutCommentOnPost(post,comment)&lt;/b&gt;&lt;br&gt;&lt;b&gt;+NotifyAboutPost(User reciever, Post)&lt;/b&gt;&lt;br&gt;&lt;b&gt;+NotifyAboutRequestAccept(request)&lt;/b&gt;&lt;br&gt;&lt;b&gt;+NotifyAboutIncomingRequest(Request request)&lt;/b&gt;&lt;br&gt;+AddPostInFollowersFeed(Post post)&amp;nbsp;&lt;br&gt;NotifyAboutPostLike(User whoLiked, Post post)&lt;br&gt;&lt;br&gt;&lt;br&gt;&lt;/p&gt;" style="verticalAlign=top;align=left;overflow=fill;html=1;whiteSpace=wrap;" vertex="1" parent="WIyWlLk6GJQsqaUBKTNV-1">
          <mxGeometry x="700" y="330" width="340" height="260" as="geometry" />
        </mxCell>
        <mxCell id="PWuJW1ykGvNtq9JV6YGY-11" value="" style="endArrow=circlePlus;startArrow=none;endFill=0;startFill=0;endSize=8;html=1;labelBackgroundColor=none;rounded=0;entryX=1.005;entryY=0.163;entryDx=0;entryDy=0;entryPerimeter=0;exitX=0;exitY=0.325;exitDx=0;exitDy=0;exitPerimeter=0;" edge="1" parent="WIyWlLk6GJQsqaUBKTNV-1" source="PWuJW1ykGvNtq9JV6YGY-3">
          <mxGeometry width="160" relative="1" as="geometry">
            <mxPoint x="810" y="180" as="sourcePoint" />
            <mxPoint x="480" y="189" as="targetPoint" />
            <Array as="points">
              <mxPoint x="670.05" y="186" />
              <mxPoint x="640.05" y="186" />
            </Array>
          </mxGeometry>
        </mxCell>
      </root>
    </mxGraphModel>
  </diagram>
</mxfile>
